<?xml version="1.0" encoding="utf-8"?>
<svg viewBox="-350.01 -693.173 1899.52 1858.0229" xmlns="http://www.w3.org/2000/svg">
  <path d="M -350.01 -693.173 L 1549.51 -693.173 L 1549.51 1164.85 L -350.01 1164.85 L -350.01 -693.173 Z" fill="#E0D8C3" style="" transform="matrix(0.9999999999999999, 0, 0, 0.9999999999999999, 0, -4.547473508864641e-13)"/>
  <path d="M 617 -29.667 L 627 -29.667 L 630 -28.667 L 629 -19.667 L 619 16.333 L 609 55.333 L 604 82.333 L 601 115.333 L 601 152.333 L 602 163.333 L 603 166.333 L 612 169.333 L 615 155.333 L 624 126.333 L 633 90.333 L 637 66.333 L 640 38.333 L 640 -26.667 L 641 -28.667 L 647 -28.667 L 653 -23.667 L 664 -8.667 L 670 -0.667 L 673 1.333 L 679 0.333 L 697 -10.667 L 702 -11.667 L 706 -9.667 L 707 -2.667 L 705 4.333 L 691 25.333 L 679 44.333 L 666 65.333 L 649 97.333 L 641 114.333 L 630 144.333 L 626 158.333 L 623 172.333 L 631 172.333 L 637 169.333 L 644 162.333 L 657 143.333 L 665 130.333 L 678 106.333 L 693 72.333 L 704 49.333 L 710 37.333 L 714 22.333 L 717 3.333 L 719 0.333 L 724 6.333 L 733 21.333 L 738 27.333 L 738 29.333 L 742 31.333 L 745 33.333 L 752 34.333 L 765 28.333 L 768 30.333 L 769 34.333 L 769 43.333 L 763 53.333 L 752 65.333 L 744 72.333 L 731 84.333 L 720 93.333 L 698 115.333 L 691 123.333 L 680 135.333 L 671 146.333 L 660 159.333 L 651 173.333 L 645 186.333 L 645 191.333 L 649 194.333 L 665 184.333 L 684 170.333 L 698 158.333 L 708 149.333 L 721 136.333 L 732 122.333 L 741 111.333 L 754 94.333 L 765 75.333 L 774 56.333 L 776 52.333 L 780 54.333 L 794 68.333 L 801 76.333 L 804 79.333 L 810 80.333 L 815 81.333 L 814 87.333 L 811 97.333 L 812 107.333 L 816 114.333 L 830 123.333 L 838 129.333 L 841 133.333 L 842 137.333 L 835 139.333 L 778 151.333 L 743 159.333 L 723 165.333 L 703 173.333 L 689 181.333 L 676 191.333 L 665 201.333 L 660 205.333 L 658 211.333 L 663 212.333 L 694 204.333 L 723 195.333 L 773 175.333 L 797 165.333 L 826 152.333 L 842 144.333 L 846 145.333 L 849 153.333 L 848 164.333 L 848 180.333 L 851 191.333 L 860 194.333 L 864 228.333 L 864 239.333 L 861 246.333 L 853 251.333 L 851 256.333 L 851 265.333 L 855 276.333 L 859 285.333 L 859 300.333 L 855 311.333 L 848 321.333 L 840 328.333 L 829 334.333 L 826 339.333 L 825 348.333 L 827 360.333 L 827 373.333 L 820 384.333 L 811 394.333 L 800 403.333 L 793 413.333 L 785 428.333 L 781 428.333 L 773 415.333 L 764 404.333 L 750 390.333 L 743 382.333 L 731 367.333 L 721 354.333 L 694 327.333 L 684 319.333 L 676 312.333 L 663 299.333 L 654 288.333 L 646 280.333 L 643 279.333 L 652 305.333 L 664 328.333 L 673 343.333 L 682 355.333 L 690 365.333 L 698 372.333 L 707 381.333 L 715 388.333 L 728 399.333 L 740 411.333 L 751 420.333 L 764 431.333 L 770 436.333 L 769 440.333 L 763 445.333 L 760 446.333 L 743 447.333 L 738 449.333 L 730 461.333 L 724 468.333 L 719 472.333 L 715 471.333 L 704 443.333 L 692 411.333 L 675 370.333 L 662 343.333 L 651 323.333 L 641 308.333 L 631 297.333 L 624 294.333 L 626 310.333 L 635 343.333 L 641 361.333 L 653 390.333 L 661 407.333 L 675 431.333 L 695 463.333 L 701 472.333 L 699 477.333 L 691 483.333 L 689 484.333 L 686 478.333 L 681 474.333 L 671 473.333 L 665 476.333 L 658 484.333 L 651 493.333 L 646 497.333 L 641 497.333 L 640 493.333 L 637 451.333 L 634 401.333 L 630 371.333 L 626 349.333 L 620 324.333 L 612 303.333 L 612 301.333 L 604 302.333 L 602 321.333 L 602 367.333 L 605 391.333 L 611 421.333 L 625 478.333 L 626 484.333 L 626 499.333 L 624 501.333 L 616 502.333 L 611 497.333 L 602 491.333 L 595 489.333 L 587 490.333 L 582 494.333 L 577 500.333 L 573 502.333 L 565 502.333 L 564 501.333 L 565 486.333 L 571 453.333 L 585 395.333 L 589 371.333 L 590 358.333 L 590 324.333 L 589 302.333 L 583 301.333 L 580 305.333 L 570 329.333 L 565 347.333 L 560 374.333 L 553 436.333 L 550 500.333 L 547 501.333 L 541 496.333 L 533 486.333 L 528 480.333 L 520 475.333 L 517 474.333 L 506 474.333 L 496 478.333 L 488 478.333 L 489 471.333 L 496 459.333 L 503 449.333 L 515 426.333 L 526 406.333 L 535 391.333 L 544 374.333 L 550 359.333 L 557 338.333 L 563 321.333 L 565 312.333 L 565 298.333 L 563 292.333 L 558 295.333 L 551 305.333 L 543 319.333 L 529 345.333 L 520 361.333 L 513 376.333 L 500 406.333 L 489 434.333 L 480 458.333 L 473 471.333 L 468 475.333 L 464 466.333 L 459 452.333 L 456 448.333 L 456 446.333 L 452 445.333 L 444 445.333 L 438 447.333 L 429 447.333 L 419 438.333 L 420 434.333 L 429 427.333 L 444 413.333 L 458 401.333 L 468 392.333 L 479 383.333 L 488 374.333 L 495 366.333 L 504 356.333 L 515 342.333 L 527 326.333 L 536 312.333 L 543 298.333 L 546 286.333 L 546 283.333 L 541 287.333 L 534 295.333 L 520 308.333 L 498 326.333 L 487 336.333 L 480 344.333 L 470 354.333 L 463 362.333 L 439 390.333 L 431 400.333 L 421 415.333 L 416 429.333 L 413 428.333 L 409 413.333 L 405 405.333 L 400 400.333 L 398 399.333 L 388 399.333 L 382 400.333 L 372 391.333 L 368 385.333 L 369 381.333 L 406 363.333 L 428 354.333 L 443 346.333 L 463 334.333 L 477 326.333 L 487 320.333 L 523 294.333 L 532 287.333 L 537 282.333 L 542 275.333 L 541 270.333 L 531 273.333 L 507 281.333 L 482 292.333 L 462 303.333 L 448 312.333 L 432 322.333 L 414 335.333 L 398 347.333 L 388 355.333 L 375 366.333 L 368 374.333 L 365 379.333 L 362 378.333 L 361 376.333 L 361 366.333 L 364 353.333 L 364 343.333 L 361 336.333 L 354 328.333 L 339 318.333 L 334 314.333 L 332 307.333 L 331 291.333 L 334 285.333 L 344 273.333 L 346 268.333 L 346 261.333 L 341 251.333 L 329 239.333 L 327 234.333 L 327 220.333 L 329 209.333 L 338 199.333 L 343 192.333 L 345 180.333 L 343 169.333 L 336 153.333 L 338 146.333 L 343 145.333 L 367 155.333 L 389 162.333 L 409 170.333 L 440 185.333 L 471 197.333 L 491 203.333 L 516 209.333 L 529 212.333 L 531 209.333 L 530 204.333 L 517 193.333 L 500 181.333 L 487 173.333 L 472 166.333 L 444 156.333 L 416 149.333 L 378 142.333 L 362 140.333 L 348 139.333 L 345 138.333 L 346 131.333 L 350 126.333 L 357 123.333 L 364 119.333 L 372 108.333 L 375 101.333 L 375 90.333 L 371 81.333 L 374 78.333 L 384 78.333 L 395 81.333 L 400 83.333 L 405 70.333 L 413 56.333 L 416 58.333 L 423 74.333 L 431 87.333 L 440 98.333 L 448 108.333 L 460 122.333 L 471 134.333 L 480 144.333 L 489 155.333 L 501 167.333 L 512 176.333 L 522 183.333 L 537 192.333 L 543 196.333 L 544 192.333 L 544 185.333 L 536 168.333 L 527 155.333 L 519 145.333 L 508 133.333 L 470 95.333 L 462 88.333 L 433 59.333 L 422 50.333 L 417 45.333 L 418 37.333 L 424 30.333 L 431 30.333 L 439 35.333 L 445 36.333 L 449 32.333 L 456 21.333 L 467 9.333 L 471 6.333 L 475 11.333 L 488 40.333 L 495 60.333 L 505 89.333 L 514 109.333 L 525 129.333 L 537 149.333 L 544 160.333 L 551 168.333 L 556 172.333 L 563 172.333 L 565 171.333 L 565 162.333 L 559 142.333 L 549 113.333 L 541 97.333 L 522 58.333 L 509 37.333 L 496 15.333 L 487 -1.667 L 486 -8.667 L 489 -10.667 L 496 -9.667 L 506 -2.667 L 510 -1.667 L 525 -1.667 L 531 -4.667 L 537 -12.667 L 544 -23.667 L 548 -25.667 L 555 -25.667 L 553 -16.667 L 552 9.333 L 553 41.333 L 559 88.333 L 563 113.333 L 569 137.333 L 575 154.333 L 581 165.333 L 589 167.333 L 588 162.333 L 589 134.333 L 589 111.333 L 587 87.333 L 581 57.333 L 572 18.333 L 565 -11.667 L 561 -24.667 L 563 -28.667 L 577 -28.667 L 582 -18.667 L 586 -14.667 L 593 -12.667 L 601 -12.667 L 607 -15.667 L 614 -24.667 L 617 -29.667 Z" fill="#E0D8C3" transform="matrix(0.9999999999999999, 0, 0, 0.9999999999999999, 0, -4.547473508864641e-13)"/>
  <path d="M 571 -60.667 L 626 -60.667 L 649 -57.667 L 670 -52.667 L 706 -41.667 L 731 -30.667 L 754 -17.667 L 774 -5.667 L 784 2.333 L 797 13.333 L 826 42.333 L 835 53.333 L 847 68.333 L 857 84.333 L 867 102.333 L 877 125.333 L 885 148.333 L 890 166.333 L 894 188.333 L 896 210.333 L 896 262.333 L 892 295.333 L 887 318.333 L 880 339.333 L 868 365.333 L 859 382.333 L 848 397.333 L 832 421.333 L 821 434.333 L 808 447.333 L 801 455.333 L 786 468.333 L 767 482.333 L 749 494.333 L 722 508.333 L 697 518.333 L 661 528.333 L 646 531.333 L 617 534.333 L 573 534.333 L 547 531.333 L 518 525.333 L 490 517.333 L 470 509.333 L 445 496.333 L 426 484.333 L 408 472.333 L 397 463.333 L 387 454.333 L 359 426.333 L 349 413.333 L 339 397.333 L 325 370.333 L 314 347.333 L 308 328.333 L 302 303.333 L 297 272.333 L 295 254.333 L 295 211.333 L 297 187.333 L 303 158.333 L 310 133.333 L 318 112.333 L 326 96.333 L 336 79.333 L 346 65.333 L 368 39.333 L 396 11.333 L 407 2.333 L 424 -10.667 L 443 -22.667 L 466 -32.667 L 494 -43.667 L 519 -51.667 L 541 -56.667 L 571 -60.667 Z M 617 -29.667 L 609 -17.667 L 604 -13.667 L 601 -12.667 L 593 -12.667 L 584 -15.667 L 579 -23.667 L 577 -28.667 L 563 -28.667 L 561 -24.667 L 565 -11.667 L 579 48.333 L 586 81.333 L 588 98.333 L 589 111.333 L 589 134.333 L 588 162.333 L 589 167.333 L 581 165.333 L 573 149.333 L 566 126.333 L 561 102.333 L 554 51.333 L 553 41.333 L 552 0.333 L 553 -16.667 L 555 -25.667 L 548 -25.667 L 543 -22.667 L 533 -6.667 L 528 -2.667 L 525 -1.667 L 510 -1.667 L 503 -4.667 L 494 -10.667 L 487 -9.667 L 486 -4.667 L 494 11.333 L 504 29.333 L 520 55.333 L 532 78.333 L 542 99.333 L 550 115.333 L 564 158.333 L 565 162.333 L 565 171.333 L 563 172.333 L 556 172.333 L 546 163.333 L 537 149.333 L 520 120.333 L 511 103.333 L 501 78.333 L 490 45.333 L 479 20.333 L 473 8.333 L 470 6.333 L 459 17.333 L 450 30.333 L 447 35.333 L 444 36.333 L 437 34.333 L 431 30.333 L 424 30.333 L 418 37.333 L 417 45.333 L 425 53.333 L 436 62.333 L 468 94.333 L 476 101.333 L 516 141.333 L 527 155.333 L 534 165.333 L 544 185.333 L 544 192.333 L 543 196.333 L 529 187.333 L 513 177.333 L 503 168.333 L 495 161.333 L 486 152.333 L 479 143.333 L 463 126.333 L 454 115.333 L 445 105.333 L 438 96.333 L 428 83.333 L 419 66.333 L 415 57.333 L 412 57.333 L 404 72.333 L 400 83.333 L 389 79.333 L 384 78.333 L 374 78.333 L 371 81.333 L 375 90.333 L 375 101.333 L 369 113.333 L 364 119.333 L 357 123.333 L 350 126.333 L 346 131.333 L 345 138.333 L 348 139.333 L 369 141.333 L 396 145.333 L 429 152.333 L 453 159.333 L 477 168.333 L 494 177.333 L 510 188.333 L 523 198.333 L 531 205.333 L 530 211.333 L 527 212.333 L 496 204.333 L 481 200.333 L 463 194.333 L 438 184.333 L 405 168.333 L 384 160.333 L 361 153.333 L 346 146.333 L 339 145.333 L 336 151.333 L 339 160.333 L 344 173.333 L 345 182.333 L 343 192.333 L 336 201.333 L 329 209.333 L 327 220.333 L 327 234.333 L 330 240.333 L 341 251.333 L 346 261.333 L 346 268.333 L 343 274.333 L 332 288.333 L 331 297.333 L 333 312.333 L 338 317.333 L 348 324.333 L 356 330.333 L 362 337.333 L 364 343.333 L 364 353.333 L 361 366.333 L 361 376.333 L 363 379.333 L 366 378.333 L 372 369.333 L 379 362.333 L 390 353.333 L 407 340.333 L 418 332.333 L 438 318.333 L 458 306.333 L 471 298.333 L 488 289.333 L 513 279.333 L 531 273.333 L 541 270.333 L 542 275.333 L 535 285.333 L 522 295.333 L 505 307.333 L 487 320.333 L 473 328.333 L 451 341.333 L 436 350.333 L 421 357.333 L 400 366.333 L 369 381.333 L 368 385.333 L 375 394.333 L 382 400.333 L 388 399.333 L 398 399.333 L 403 402.333 L 407 409.333 L 411 420.333 L 414 429.333 L 416 429.333 L 421 415.333 L 429 403.333 L 438 391.333 L 448 380.333 L 457 369.333 L 469 356.333 L 476 348.333 L 486 338.333 L 492 331.333 L 500 324.333 L 514 313.333 L 526 302.333 L 534 295.333 L 543 285.333 L 546 283.333 L 544 295.333 L 538 308.333 L 530 322.333 L 517 339.333 L 508 351.333 L 495 366.333 L 479 383.333 L 465 395.333 L 457 402.333 L 442 415.333 L 435 422.333 L 427 429.333 L 419 435.333 L 420 439.333 L 429 447.333 L 438 447.333 L 444 445.333 L 452 445.333 L 456 446.333 L 458 451.333 L 463 463.333 L 467 474.333 L 470 474.333 L 475 468.333 L 482 453.333 L 493 423.333 L 504 397.333 L 517 367.333 L 528 346.333 L 537 330.333 L 549 308.333 L 558 295.333 L 563 292.333 L 565 298.333 L 565 312.333 L 561 328.333 L 554 346.333 L 547 367.333 L 533 395.333 L 525 408.333 L 512 432.333 L 503 449.333 L 491 467.333 L 488 473.333 L 488 478.333 L 496 478.333 L 506 474.333 L 517 474.333 L 525 478.333 L 530 482.333 L 539 493.333 L 545 500.333 L 549 501.333 L 550 500.333 L 553 436.333 L 560 374.333 L 566 343.333 L 571 326.333 L 581 303.333 L 583 301.333 L 589 302.333 L 590 324.333 L 590 358.333 L 588 379.333 L 582 408.333 L 571 453.333 L 565 486.333 L 564 501.333 L 565 502.333 L 573 502.333 L 579 498.333 L 584 492.333 L 590 489.333 L 599 490.333 L 609 495.333 L 614 499.333 L 616 502.333 L 624 501.333 L 626 499.333 L 626 484.333 L 620 458.333 L 610 417.333 L 604 386.333 L 602 367.333 L 602 321.333 L 604 302.333 L 612 301.333 L 615 311.333 L 621 328.333 L 628 358.333 L 633 392.333 L 636 431.333 L 639 478.333 L 640 493.333 L 641 497.333 L 648 496.333 L 657 486.333 L 664 477.333 L 668 474.333 L 677 473.333 L 684 476.333 L 687 479.333 L 689 484.333 L 697 478.333 L 701 474.333 L 699 468.333 L 693 460.333 L 685 447.333 L 674 429.333 L 663 410.333 L 655 394.333 L 645 371.333 L 637 350.333 L 629 321.333 L 625 304.333 L 624 294.333 L 632 298.333 L 642 309.333 L 655 330.333 L 671 361.333 L 683 389.333 L 697 424.333 L 708 454.333 L 715 471.333 L 719 472.333 L 725 467.333 L 733 457.333 L 739 448.333 L 743 447.333 L 760 446.333 L 766 443.333 L 770 439.333 L 769 435.333 L 755 423.333 L 744 414.333 L 732 403.333 L 724 395.333 L 713 386.333 L 698 372.333 L 690 365.333 L 681 354.333 L 669 337.333 L 652 305.333 L 643 278.333 L 653 287.333 L 662 297.333 L 669 305.333 L 682 318.333 L 690 324.333 L 702 335.333 L 723 356.333 L 736 373.333 L 745 384.333 L 759 399.333 L 767 407.333 L 775 418.333 L 782 429.333 L 785 428.333 L 794 411.333 L 801 402.333 L 815 390.333 L 823 380.333 L 827 373.333 L 827 360.333 L 825 348.333 L 826 339.333 L 829 334.333 L 843 326.333 L 850 319.333 L 857 307.333 L 859 300.333 L 859 285.333 L 852 269.333 L 851 265.333 L 851 256.333 L 854 250.333 L 862 245.333 L 864 239.333 L 864 228.333 L 860 194.333 L 851 191.333 L 848 180.333 L 848 164.333 L 849 153.333 L 846 145.333 L 842 144.333 L 826 152.333 L 802 163.333 L 773 175.333 L 723 195.333 L 694 204.333 L 663 212.333 L 658 211.333 L 660 205.333 L 671 195.333 L 685 184.333 L 695 177.333 L 710 170.333 L 729 163.333 L 751 157.333 L 829 140.333 L 841 138.333 L 842 136.333 L 839 130.333 L 832 124.333 L 820 117.333 L 815 113.333 L 812 107.333 L 811 97.333 L 815 85.333 L 814 80.333 L 807 80.333 L 802 77.333 L 795 70.333 L 788 62.333 L 778 52.333 L 775 53.333 L 767 71.333 L 759 86.333 L 751 98.333 L 740 112.333 L 727 128.333 L 718 139.333 L 701 156.333 L 690 165.333 L 676 176.333 L 659 188.333 L 648 194.333 L 645 191.333 L 646 183.333 L 655 166.333 L 666 152.333 L 678 138.333 L 705 108.333 L 723 90.333 L 734 81.333 L 746 70.333 L 759 58.333 L 767 47.333 L 769 43.333 L 769 34.333 L 767 29.333 L 764 28.333 L 752 34.333 L 743 32.333 L 740 29.333 L 738 29.333 L 736 25.333 L 727 11.333 L 721 2.333 L 718 0.333 L 715 17.333 L 711 34.333 L 705 48.333 L 695 67.333 L 684 92.333 L 674 114.333 L 664 132.333 L 654 148.333 L 642 164.333 L 634 171.333 L 625 172.333 L 623 172.333 L 628 150.333 L 639 119.333 L 648 99.333 L 663 70.333 L 674 52.333 L 684 36.333 L 698 14.333 L 705 4.333 L 707 -2.667 L 706 -9.667 L 700 -11.667 L 690 -6.667 L 679 0.333 L 673 1.333 L 668 -3.667 L 660 -13.667 L 651 -25.667 L 647 -28.667 L 641 -28.667 L 640 -26.667 L 640 38.333 L 636 72.333 L 632 94.333 L 623 130.333 L 613 162.333 L 612 169.333 L 603 166.333 L 602 163.333 L 601 152.333 L 601 115.333 L 604 82.333 L 610 50.333 L 624 -2.667 L 630 -23.667 L 630 -28.667 L 627 -29.667 L 617 -29.667 Z" fill="#161514" transform="matrix(0.9999999999999999, 0, 0, 0.9999999999999999, 0, -4.547473508864641e-13)"/>
  <path d="M 91 -259.667 L 115 -256.667 L 129 -255.667 L 209 -255.667 L 236 -253.667 L 260 -249.667 L 284 -242.667 L 304 -233.667 L 324 -222.667 L 338 -212.667 L 348 -204.667 L 358 -195.667 L 369 -183.667 L 380 -167.667 L 392 -147.667 L 400 -131.667 L 407 -112.667 L 416 -83.667 L 422 -58.667 L 421 -54.667 L 415 -51.667 L 403 -47.667 L 390 -39.667 L 379 -30.667 L 361 -12.667 L 352 -22.667 L 338 -37.667 L 311 -64.667 L 307 -67.667 L 307 -69.667 L 303 -71.667 L 287 -87.667 L 279 -94.667 L 278 -97.667 L 276 -97.667 L 269 -105.667 L 246 -128.667 L 236 -135.667 L 227 -138.667 L 218 -136.667 L 210 -129.667 L 206 -120.667 L 208 -111.667 L 214 -101.667 L 271 -44.667 L 279 -37.667 L 318 1.333 L 334 15.333 L 330 20.333 L 325 24.333 L 313 41.333 L 305 54.333 L 295 75.333 L 291 76.333 L 272 69.333 L 240 60.333 L 221 53.333 L 198 42.333 L 179 30.333 L 165 19.333 L 153 8.333 L 139 -6.667 L 129 -19.667 L 121 -32.667 L 113 -48.667 L 107 -63.667 L 101 -82.667 L 97 -102.667 L 96 -112.667 L 96 -144.667 L 98 -175.667 L 99 -192.667 L 99 -214.667 L 96 -228.667 L 90 -246.667 L 89 -257.667 L 91 -259.667 Z" fill="#161514" transform="matrix(0.9999999999999999, 0, 0, 0.9999999999999999, 0, -4.547473508864641e-13)"/>
  <path d="M 1099 -260.667 L 1103 -260.667 L 1103 -251.667 L 1097 -227.667 L 1095 -211.667 L 1095 -114.667 L 1092 -92.667 L 1087 -71.667 L 1081 -56.667 L 1072 -39.667 L 1058 -17.667 L 1049 -6.667 L 1031 11.333 L 1012 25.333 L 994 37.333 L 976 47.333 L 953 57.333 L 932 64.333 L 908 70.333 L 902 71.333 L 894 71.333 L 882 49.333 L 875 37.333 L 863 20.333 L 858 14.333 L 859 11.333 L 867 4.333 L 883 -10.667 L 900 -27.667 L 907 -33.667 L 914 -41.667 L 937 -64.667 L 944 -72.667 L 957 -84.667 L 970 -97.667 L 980 -111.667 L 982 -116.667 L 982 -123.667 L 976 -135.667 L 972 -139.667 L 962 -139.667 L 948 -132.667 L 937 -122.667 L 929 -115.667 L 921 -107.667 L 913 -100.667 L 896 -83.667 L 888 -76.667 L 862 -50.667 L 852 -37.667 L 840 -23.667 L 834 -12.667 L 829 -14.667 L 815 -26.667 L 800 -38.667 L 783 -49.667 L 769 -56.667 L 770 -62.667 L 773 -72.667 L 779 -97.667 L 785 -117.667 L 795 -141.667 L 805 -159.667 L 815 -174.667 L 822 -183.667 L 837 -199.667 L 851 -211.667 L 872 -225.667 L 889 -234.667 L 910 -242.667 L 932 -248.667 L 954 -252.667 L 973 -254.667 L 992 -255.667 L 1038 -255.667 L 1074 -256.667 L 1092 -258.667 L 1099 -260.667 Z" fill="#161514" transform="matrix(0.9999999999999999, 0, 0, 0.9999999999999999, 0, -4.547473508864641e-13)"/>
  <path d="M 898 395.333 L 908 395.333 L 928 399.333 L 955 408.333 L 981 420.333 L 1000 430.333 L 1017 442.333 L 1030 453.333 L 1047 470.333 L 1058 484.333 L 1068 499.333 L 1077 516.333 L 1084 535.333 L 1089 554.333 L 1092 571.333 L 1093 580.333 L 1093 628.333 L 1092 646.333 L 1092 683.333 L 1095 699.333 L 1099 713.333 L 1099 723.333 L 1097 726.333 L 1084 726.333 L 1061 723.333 L 1047 722.333 L 970 721.333 L 943 718.333 L 919 713.333 L 895 705.333 L 875 696.333 L 857 685.333 L 841 673.333 L 828 661.333 L 817 649.333 L 808 636.333 L 798 619.333 L 790 603.333 L 784 589.333 L 777 565.333 L 769 532.333 L 769 527.333 L 795 514.333 L 808 505.333 L 821 494.333 L 828 487.333 L 833 488.333 L 840 496.333 L 853 510.333 L 860 518.333 L 872 531.333 L 884 543.333 L 892 550.333 L 909 566.333 L 922 578.333 L 933 587.333 L 946 597.333 L 961 606.333 L 970 607.333 L 978 604.333 L 983 600.333 L 986 593.333 L 986 585.333 L 983 578.333 L 977 569.333 L 969 561.333 L 958 552.333 L 948 543.333 L 940 536.333 L 933 529.333 L 925 522.333 L 917 514.333 L 909 507.333 L 873 471.333 L 859 460.333 L 857 458.333 L 858 454.333 L 866 444.333 L 878 428.333 L 895 399.333 L 898 395.333 Z" fill="#161514" transform="matrix(0.9999999999999999, 0, 0, 0.9999999999999999, 0, -4.547473508864641e-13)"/>
  <path d="M 104 90.333 L 139 90.333 L 163 93.333 L 188 99.333 L 210 107.333 L 226 115.333 L 242 124.333 L 255 132.333 L 265 141.333 L 266 146.333 L 261 157.333 L 257 175.333 L 255 199.333 L 255 210.333 L 254 211.333 L 230 212.333 L 73 213.333 L 66 215.333 L 61 220.333 L 58 224.333 L 56 229.333 L 56 243.333 L 61 251.333 L 66 255.333 L 122 255.333 L 254 256.333 L 255 259.333 L 255 272.333 L 258 295.333 L 263 320.333 L 263 323.333 L 252 330.333 L 237 340.333 L 215 352.333 L 196 360.333 L 177 366.333 L 153 371.333 L 139 373.333 L 125 374.333 L 112 374.333 L 88 372.333 L 62 367.333 L 41 360.333 L 16 348.333 L -2 337.333 L -16 325.333 L -31 310.333 L -42 296.333 L -53 283.333 L -62 273.333 L -77 258.333 L -90 248.333 L -112 236.333 L -113 233.333 L -103 227.333 L -89 218.333 L -79 209.333 L -67 197.333 L -56 183.333 L -44 169.333 L -37 161.333 L -28 151.333 L -20 143.333 L -12 136.333 L 2 125.333 L 17 115.333 L 36 105.333 L 55 98.333 L 77 93.333 L 104 90.333 Z" fill="#161514" transform="matrix(0.9999999999999999, 0, 0, 0.9999999999999999, 0, -4.547473508864641e-13)"/>
  <path d="M 1068 90.333 L 1081 90.333 L 1107 92.333 L 1127 96.333 L 1145 102.333 L 1170 114.333 L 1194 130.333 L 1208 141.333 L 1220 152.333 L 1229 161.333 L 1238 172.333 L 1249 185.333 L 1256 194.333 L 1265 205.333 L 1272 212.333 L 1283 221.333 L 1293 228.333 L 1299 232.333 L 1298 237.333 L 1282 246.333 L 1267 259.333 L 1252 273.333 L 1245 280.333 L 1232 297.333 L 1221 310.333 L 1206 325.333 L 1195 334.333 L 1182 343.333 L 1166 352.333 L 1143 362.333 L 1123 368.333 L 1100 372.333 L 1091 373.333 L 1062 374.333 L 1038 372.333 L 1012 366.333 L 991 359.333 L 966 347.333 L 947 335.333 L 935 326.333 L 928 320.333 L 932 296.333 L 935 280.333 L 937 257.333 L 942 256.333 L 1073 256.333 L 1121 257.333 L 1130 255.333 L 1135 252.333 L 1140 243.333 L 1141 238.333 L 1141 231.333 L 1137 220.333 L 1130 214.333 L 1124 212.333 L 1103 212.333 L 991 214.333 L 950 214.333 L 935 213.333 L 934 190.333 L 931 171.333 L 926 151.333 L 927 144.333 L 940 131.333 L 953 122.333 L 971 112.333 L 992 103.333 L 1012 97.333 L 1040 92.333 L 1068 90.333 Z" fill="#161514" transform="matrix(0.9999999999999999, 0, 0, 0.9999999999999999, 0, -4.547473508864641e-13)"/>
  <path d="M 285 397.333 L 292 397.333 L 304 417.333 L 315 434.333 L 325 447.333 L 330 453.333 L 319 464.333 L 317 464.333 L 317 466.333 L 312 470.333 L 305 478.333 L 262 521.333 L 255 529.333 L 242 542.333 L 234 549.333 L 218 564.333 L 208 577.333 L 205 584.333 L 206 591.333 L 212 601.333 L 220 608.333 L 227 607.333 L 237 602.333 L 253 590.333 L 265 578.333 L 276 569.333 L 335 510.333 L 349 494.333 L 356 488.333 L 361 488.333 L 372 497.333 L 387 509.333 L 411 523.333 L 418 526.333 L 418 534.333 L 413 564.333 L 407 584.333 L 401 599.333 L 393 615.333 L 385 627.333 L 373 643.333 L 360 659.333 L 349 671.333 L 338 680.333 L 327 688.333 L 315 695.333 L 290 706.333 L 275 711.333 L 254 716.333 L 236 719.333 L 206 721.333 L 165 719.333 L 128 719.333 L 101 725.333 L 92 724.333 L 88 720.333 L 88 712.333 L 91 706.333 L 95 699.333 L 98 683.333 L 98 659.333 L 96 615.333 L 97 580.333 L 101 557.333 L 107 537.333 L 115 517.333 L 127 495.333 L 138 479.333 L 150 465.333 L 166 449.333 L 183 436.333 L 202 424.333 L 221 414.333 L 245 405.333 L 260 401.333 L 285 397.333 Z" fill="#161514" transform="matrix(0.9999999999999999, 0, 0, 0.9999999999999999, 0, -4.547473508864641e-13)"/>
  <path d="M 682 563.333 L 687 563.333 L 695 571.333 L 707 589.333 L 719 612.333 L 729 640.333 L 734 662.333 L 737 685.333 L 737 716.333 L 734 738.333 L 728 762.333 L 720 783.333 L 712 799.333 L 703 812.333 L 689 830.333 L 679 843.333 L 671 851.333 L 657 862.333 L 639 875.333 L 628 884.333 L 620 891.333 L 619 893.333 L 617 893.333 L 615 897.333 L 599 925.333 L 595 928.333 L 590 924.333 L 574 898.333 L 565 888.333 L 555 879.333 L 538 867.333 L 524 855.333 L 511 843.333 L 504 836.333 L 496 826.333 L 484 810.333 L 476 796.333 L 466 775.333 L 458 751.333 L 455 736.333 L 452 704.333 L 452 681.333 L 456 653.333 L 461 632.333 L 469 610.333 L 478 593.333 L 492 573.333 L 500 564.333 L 509 565.333 L 532 572.333 L 557 575.333 L 571 576.333 L 573 583.333 L 574 732.333 L 577 741.333 L 583 749.333 L 588 753.333 L 593 755.333 L 603 753.333 L 611 747.333 L 614 742.333 L 616 732.333 L 616 662.333 L 615 577.333 L 638 576.333 L 656 573.333 L 671 568.333 L 682 563.333 Z" fill="#161514" transform="matrix(0.9999999999999999, 0, 0, 0.9999999999999999, 0, -4.547473508864641e-13)"/>
  <path d="M 593 -455.667 L 598 -455.667 L 603 -447.667 L 609 -432.667 L 616 -422.667 L 625 -412.667 L 640 -397.667 L 650 -389.667 L 667 -375.667 L 680 -363.667 L 689 -353.667 L 702 -336.667 L 711 -322.667 L 719 -307.667 L 728 -283.667 L 733 -264.667 L 737 -237.667 L 737 -199.667 L 734 -180.667 L 729 -161.667 L 722 -142.667 L 713 -122.667 L 704 -106.667 L 690 -89.667 L 685 -88.667 L 663 -94.667 L 642 -97.667 L 616 -97.667 L 615 -101.667 L 615 -203.667 L 616 -266.667 L 613 -274.667 L 607 -281.667 L 601 -284.667 L 591 -284.667 L 581 -279.667 L 575 -272.667 L 573 -268.667 L 573 -100.667 L 549 -99.667 L 533 -97.667 L 512 -90.667 L 506 -87.667 L 502 -88.667 L 493 -98.667 L 479 -119.667 L 468 -139.667 L 461 -157.667 L 456 -178.667 L 454 -192.667 L 453 -207.667 L 453 -229.667 L 456 -252.667 L 461 -273.667 L 469 -297.667 L 477 -315.667 L 487 -334.667 L 498 -350.667 L 507 -360.667 L 514 -368.667 L 524 -377.667 L 537 -387.667 L 551 -399.667 L 562 -408.667 L 572 -420.667 L 582 -435.667 L 591 -453.667 L 593 -455.667 Z" fill="#161514" transform="matrix(0.9999999999999999, 0, 0, 0.9999999999999999, 0, -4.547473508864641e-13)"/>
  <path d="M 1454 315.333 L 1458 315.333 L 1456 340.333 L 1454 360.333 L 1447 396.333 L 1437 438.333 L 1429 468.333 L 1420 499.333 L 1408 533.333 L 1398 559.333 L 1389 580.333 L 1381 596.333 L 1368 621.333 L 1358 642.333 L 1347 658.333 L 1339 672.333 L 1328 691.333 L 1310 718.333 L 1300 732.333 L 1291 743.333 L 1279 760.333 L 1265 775.333 L 1256 786.333 L 1246 797.333 L 1239 805.333 L 1230 815.333 L 1219 827.333 L 1212 835.333 L 1201 847.333 L 1192 857.333 L 1179 868.333 L 1166 880.333 L 1158 887.333 L 1144 899.333 L 1130 910.333 L 1112 923.333 L 1095 935.333 L 1075 949.333 L 1053 963.333 L 1032 976.333 L 1008 990.333 L 985 1002.333 L 969 1010.333 L 924 1029.333 L 903 1038.333 L 867 1050.333 L 841 1058.333 L 811 1065.333 L 740 1080.333 L 702 1086.333 L 678 1089.333 L 672 1089.333 L 674 1083.333 L 681 1069.333 L 686 1054.333 L 688 1049.333 L 719 1045.333 L 788 1031.333 L 820 1023.333 L 861 1011.333 L 885 1003.333 L 914 991.333 L 937 981.333 L 971 965.333 L 992 954.333 L 1016 940.333 L 1032 931.333 L 1057 915.333 L 1070 906.333 L 1089 892.333 L 1101 883.333 L 1116 870.333 L 1130 859.333 L 1146 844.333 L 1154 837.333 L 1167 825.333 L 1199 793.333 L 1206 785.333 L 1217 773.333 L 1229 760.333 L 1238 749.333 L 1245 742.333 L 1269 710.333 L 1279 695.333 L 1290 679.333 L 1298 668.333 L 1307 653.333 L 1317 635.333 L 1327 618.333 L 1336 601.333 L 1347 578.333 L 1354 563.333 L 1369 525.333 L 1378 502.333 L 1386 477.333 L 1402 418.333 L 1411 376.333 L 1418 332.333 L 1419 322.333 L 1421 321.333 L 1436 320.333 L 1454 315.333 Z" fill="#161514" transform="matrix(0.9999999999999999, 0, 0, 0.9999999999999999, 0, -4.547473508864641e-13)"/>
  <path d="M 675 -610.667 L 750 -602.667 L 783 -596.667 L 830 -584.667 L 859 -575.667 L 897 -562.667 L 956 -540.667 L 980 -530.667 L 1010 -515.667 L 1032 -503.667 L 1052 -490.667 L 1071 -478.667 L 1088 -466.667 L 1112 -451.667 L 1126 -441.667 L 1141 -429.667 L 1152 -420.667 L 1166 -407.667 L 1174 -400.667 L 1204 -372.667 L 1220 -356.667 L 1227 -348.667 L 1236 -339.667 L 1243 -331.667 L 1254 -318.667 L 1263 -307.667 L 1276 -291.667 L 1290 -272.667 L 1316 -236.667 L 1330 -214.667 L 1347 -186.667 L 1356 -170.667 L 1371 -142.667 L 1382 -120.667 L 1393 -96.667 L 1403 -73.667 L 1416 -38.667 L 1427 -3.667 L 1437 33.333 L 1445 69.333 L 1452 105.333 L 1458 146.333 L 1458 151.333 L 1453 150.333 L 1437 144.333 L 1420 144.333 L 1412 101.333 L 1401 50.333 L 1382 -15.667 L 1368 -56.667 L 1355 -87.667 L 1342 -115.667 L 1331 -139.667 L 1321 -158.667 L 1307 -179.667 L 1294 -200.667 L 1283 -218.667 L 1273 -233.667 L 1260 -249.667 L 1249 -263.667 L 1237 -278.667 L 1224 -295.667 L 1213 -308.667 L 1198 -324.667 L 1177 -345.667 L 1166 -354.667 L 1153 -366.667 L 1141 -377.667 L 1130 -386.667 L 1118 -396.667 L 1102 -408.667 L 1089 -418.667 L 1078 -426.667 L 1060 -439.667 L 1045 -449.667 L 1006 -472.667 L 983 -485.667 L 966 -493.667 L 935 -506.667 L 912 -516.667 L 884 -526.667 L 835 -542.667 L 806 -550.667 L 738 -564.667 L 689 -572.667 L 687 -574.667 L 682 -590.667 L 676 -605.667 L 674 -609.667 L 675 -610.667 Z" fill="#161514" transform="matrix(0.9999999999999999, 0, 0, 0.9999999999999999, 0, -4.547473508864641e-13)"/>
  <path d="M -264 314.333 L -252 319.333 L -243 321.333 L -228 322.333 L -223 358.333 L -215 401.333 L -203 449.333 L -191 490.333 L -181 520.333 L -164 562.333 L -152 587.333 L -131 629.333 L -119 649.333 L -105 671.333 L -84 702.333 L -71 719.333 L -63 729.333 L -52 742.333 L -43 753.333 L -31 766.333 L -24 774.333 L -8 791.333 L 18 817.333 L 26 824.333 L 35 833.333 L 43 840.333 L 59 855.333 L 69 864.333 L 80 873.333 L 95 885.333 L 113 898.333 L 182 944.333 L 205 956.333 L 227 968.333 L 246 977.333 L 279 992.333 L 317 1006.333 L 337 1013.333 L 364 1022.333 L 406 1032.333 L 448 1041.333 L 470 1045.333 L 503 1049.333 L 506 1053.333 L 511 1072.333 L 517 1084.333 L 517 1086.333 L 494 1085.333 L 465 1081.333 L 408 1072.333 L 375 1065.333 L 349 1057.333 L 296 1040.333 L 274 1031.333 L 241 1016.333 L 225 1009.333 L 192 992.333 L 176 984.333 L 158 974.333 L 136 960.333 L 119 949.333 L 94 932.333 L 78 920.333 L 61 907.333 L 45 894.333 L 33 885.333 L 21 874.333 L 11 865.333 L -1 854.333 L -9 847.333 L -32 824.333 L -39 816.333 L -54 800.333 L -63 789.333 L -70 781.333 L -80 768.333 L -91 754.333 L -100 743.333 L -113 726.333 L -129 702.333 L -145 676.333 L -155 661.333 L -164 646.333 L -178 621.333 L -192 592.333 L -206 560.333 L -219 526.333 L -229 498.333 L -241 454.333 L -250 417.333 L -258 376.333 L -263 344.333 L -264 334.333 L -264 314.333 Z" fill="#161514" transform="matrix(0.9999999999999999, 0, 0, 0.9999999999999999, 0, -4.547473508864641e-13)"/>
  <path d="M 507 -609.667 L 515 -609.667 L 514 -604.667 L 505 -584.667 L 501 -573.667 L 495 -571.667 L 411 -555.667 L 380 -548.667 L 350 -540.667 L 301 -523.667 L 274 -513.667 L 238 -498.667 L 196 -477.667 L 171 -462.667 L 149 -449.667 L 129 -437.667 L 114 -427.667 L 102 -418.667 L 88 -407.667 L 72 -394.667 L 60 -383.667 L 49 -374.667 L 36 -363.667 L 29 -356.667 L 21 -349.667 L 8 -337.667 L 1 -329.667 L -6 -322.667 L -13 -314.667 L -24 -302.667 L -33 -292.667 L -43 -281.667 L -52 -270.667 L -62 -257.667 L -71 -246.667 L -81 -232.667 L -99 -205.667 L -112 -184.667 L -124 -164.667 L -140 -136.667 L -150 -117.667 L -161 -94.667 L -169 -75.667 L -179 -50.667 L -188 -27.667 L -203 18.333 L -211 50.333 L -229 137.333 L -232 142.333 L -246 143.333 L -259 147.333 L -265 148.333 L -260 107.333 L -254 73.333 L -243 25.333 L -234 -7.667 L -219 -53.667 L -208 -80.667 L -199 -100.667 L -185 -129.667 L -174 -152.667 L -161 -175.667 L -149 -195.667 L -136 -215.667 L -125 -232.667 L -108 -257.667 L -94 -276.667 L -80 -294.667 L -68 -308.667 L -59 -319.667 L -44 -335.667 L -37 -343.667 L -22 -359.667 L -12 -369.667 L -4 -376.667 L 7 -387.667 L 15 -394.667 L 22 -401.667 L 30 -408.667 L 45 -422.667 L 56 -431.667 L 72 -443.667 L 86 -453.667 L 104 -466.667 L 121 -477.667 L 145 -492.667 L 175 -508.667 L 197 -520.667 L 221 -532.667 L 245 -543.667 L 294 -562.667 L 330 -574.667 L 374 -586.667 L 415 -596.667 L 442 -601.667 L 480 -606.667 L 507 -609.667 Z" fill="#161514" transform="matrix(0.9999999999999999, 0, 0, 0.9999999999999999, 0, -4.547473508864641e-13)"/>
  <path d="M 499 -544.667 L 505 -543.667 L 513 -524.667 L 519 -508.667 L 519 -506.667 L 482 -502.667 L 448 -496.667 L 393 -484.667 L 357 -474.667 L 319 -461.667 L 290 -449.667 L 254 -432.667 L 227 -419.667 L 203 -405.667 L 181 -392.667 L 158 -378.667 L 142 -367.667 L 123 -353.667 L 105 -339.667 L 92 -328.667 L 82 -319.667 L 65 -303.667 L 52 -290.667 L 45 -282.667 L 37 -274.667 L 30 -266.667 L 18 -253.667 L 9 -242.667 L -2 -230.667 L -12 -217.667 L -25 -199.667 L -38 -180.667 L -48 -167.667 L -57 -153.667 L -66 -136.667 L -77 -119.667 L -98 -77.667 L -110 -51.667 L -120 -28.667 L -132 7.333 L -142 40.333 L -155 92.333 L -162 144.333 L -163 160.333 L -167 159.333 L -185 149.333 L -194 146.333 L -202 144.333 L -201 133.333 L -195 97.333 L -188 64.333 L -179 30.333 L -162 -22.667 L -152 -49.667 L -136 -85.667 L -125 -108.667 L -117 -124.667 L -106 -144.667 L -92 -166.667 L -77 -191.667 L -69 -203.667 L -60 -216.667 L -49 -230.667 L -36 -246.667 L -25 -260.667 L -12 -276.667 L -3 -286.667 L 6 -297.667 L 17 -309.667 L 32 -325.667 L 39 -332.667 L 47 -339.667 L 57 -348.667 L 68 -357.667 L 83 -370.667 L 96 -381.667 L 112 -393.667 L 130 -406.667 L 141 -413.667 L 156 -423.667 L 177 -435.667 L 194 -445.667 L 212 -455.667 L 254 -476.667 L 280 -487.667 L 330 -505.667 L 355 -513.667 L 408 -528.667 L 441 -535.667 L 480 -542.667 L 499 -544.667 Z" fill="#161514" transform="matrix(0.9999999999999999, 0, 0, 0.9999999999999999, 0, -4.547473508864641e-13)"/>
  <path d="M 688 -544.667 L 703 -543.667 L 732 -539.667 L 763 -533.667 L 811 -521.667 L 837 -513.667 L 900 -492.667 L 924 -482.667 L 960 -466.667 L 987 -452.667 L 1008 -440.667 L 1054 -412.667 L 1066 -404.667 L 1087 -388.667 L 1099 -379.667 L 1115 -366.667 L 1129 -354.667 L 1141 -342.667 L 1149 -335.667 L 1156 -328.667 L 1164 -321.667 L 1182 -303.667 L 1189 -295.667 L 1201 -281.667 L 1212 -269.667 L 1223 -255.667 L 1233 -242.667 L 1245 -226.667 L 1255 -211.667 L 1274 -182.667 L 1286 -163.667 L 1303 -135.667 L 1312 -118.667 L 1323 -95.667 L 1335 -68.667 L 1350 -29.667 L 1367 20.333 L 1375 50.333 L 1384 95.333 L 1390 131.333 L 1391 142.333 L 1388 144.333 L 1375 147.333 L 1365 153.333 L 1358 158.333 L 1356 158.333 L 1355 154.333 L 1353 134.333 L 1345 92.333 L 1338 60.333 L 1328 24.333 L 1312 -22.667 L 1300 -51.667 L 1289 -75.667 L 1281 -93.667 L 1273 -109.667 L 1261 -131.667 L 1245 -159.667 L 1227 -186.667 L 1217 -200.667 L 1204 -218.667 L 1195 -230.667 L 1182 -246.667 L 1173 -256.667 L 1166 -264.667 L 1152 -279.667 L 1131 -300.667 L 1123 -307.667 L 1112 -318.667 L 1104 -325.667 L 1092 -335.667 L 1081 -344.667 L 1066 -356.667 L 1052 -366.667 L 1035 -378.667 L 1017 -390.667 L 995 -404.667 L 974 -416.667 L 945 -430.667 L 917 -443.667 L 893 -453.667 L 867 -463.667 L 848 -470.667 L 825 -477.667 L 775 -491.667 L 737 -499.667 L 708 -503.667 L 698 -504.667 L 672 -505.667 L 673 -509.667 L 680 -523.667 L 687 -543.667 L 688 -544.667 Z" fill="#161514" transform="matrix(0.9999999999999999, 0, 0, 0.9999999999999999, 0, -4.547473508864641e-13)"/>
  <path d="M 1355 302.333 L 1361 305.333 L 1370 311.333 L 1385 316.333 L 1392 319.333 L 1389 344.333 L 1384 377.333 L 1375 418.333 L 1367 449.333 L 1358 479.333 L 1344 519.333 L 1326 562.333 L 1318 578.333 L 1309 595.333 L 1299 616.333 L 1286 639.333 L 1269 667.333 L 1241 705.333 L 1234 714.333 L 1225 724.333 L 1215 737.333 L 1206 747.333 L 1197 758.333 L 1185 771.333 L 1178 779.333 L 1166 791.333 L 1158 798.333 L 1144 812.333 L 1136 819.333 L 1126 828.333 L 1115 837.333 L 1104 847.333 L 1093 856.333 L 1076 869.333 L 1032 898.333 L 1008 914.333 L 986 927.333 L 964 939.333 L 942 950.333 L 908 965.333 L 872 979.333 L 842 989.333 L 798 1001.333 L 754 1012.333 L 719 1018.333 L 689 1020.333 L 681 1004.333 L 672 987.333 L 672 983.333 L 719 978.333 L 749 973.333 L 786 965.333 L 817 957.333 L 853 945.333 L 884 934.333 L 910 923.333 L 926 916.333 L 942 908.333 L 971 893.333 L 1002 874.333 L 1024 861.333 L 1044 847.333 L 1060 835.333 L 1073 824.333 L 1083 816.333 L 1097 804.333 L 1110 792.333 L 1121 781.333 L 1129 774.333 L 1142 762.333 L 1157 747.333 L 1173 730.333 L 1180 723.333 L 1187 715.333 L 1201 698.333 L 1211 685.333 L 1224 667.333 L 1236 648.333 L 1253 620.333 L 1267 595.333 L 1281 568.333 L 1295 538.333 L 1303 519.333 L 1314 489.333 L 1323 462.333 L 1332 432.333 L 1341 395.333 L 1348 362.333 L 1352 335.333 L 1354 303.333 L 1355 302.333 Z" fill="#161514" transform="matrix(0.9999999999999999, 0, 0, 0.9999999999999999, 0, -4.547473508864641e-13)"/>
  <path d="M -165 304.333 L -162 304.333 L -159 343.333 L -154 379.333 L -148 406.333 L -141 433.333 L -130 469.333 L -110 525.333 L -97 554.333 L -86 576.333 L -74 598.333 L -60 624.333 L -45 648.333 L -34 664.333 L -20 682.333 L -7 699.333 L 4 713.333 L 16 727.333 L 30 742.333 L 36 747.333 L 43 755.333 L 62 774.333 L 70 781.333 L 82 792.333 L 90 799.333 L 106 812.333 L 119 822.333 L 133 833.333 L 151 847.333 L 168 859.333 L 185 870.333 L 204 882.333 L 226 895.333 L 254 910.333 L 273 920.333 L 301 932.333 L 321 941.333 L 351 951.333 L 394 964.333 L 418 970.333 L 450 976.333 L 485 982.333 L 515 985.333 L 517 986.333 L 515 991.333 L 505 1009.333 L 501 1017.333 L 499 1018.333 L 472 1018.333 L 444 1014.333 L 418 1008.333 L 361 993.333 L 341 987.333 L 315 977.333 L 283 964.333 L 257 952.333 L 234 941.333 L 218 932.333 L 174 906.333 L 159 897.333 L 141 885.333 L 125 873.333 L 107 861.333 L 91 848.333 L 80 839.333 L 68 829.333 L 59 822.333 L 44 808.333 L 32 797.333 L 4 769.333 L 4 767.333 L 2 767.333 L -5 759.333 L -14 749.333 L -23 738.333 L -35 724.333 L -45 710.333 L -61 687.333 L -78 662.333 L -96 635.333 L -104 622.333 L -122 588.333 L -141 549.333 L -151 526.333 L -161 498.333 L -169 472.333 L -175 454.333 L -186 414.333 L -191 392.333 L -196 355.333 L -198 334.333 L -198 320.333 L -182 315.333 L -166 305.333 L -165 304.333 Z" fill="#161514" transform="matrix(0.9999999999999999, 0, 0, 0.9999999999999999, 0, -4.547473508864641e-13)"/>
  <path d="M 588 -615.667 L 605 -615.667 L 616 -611.667 L 626 -605.667 L 634 -598.667 L 643 -584.667 L 647 -572.667 L 648 -566.667 L 648 -557.667 L 644 -541.667 L 635 -528.667 L 627 -520.667 L 619 -515.667 L 606 -510.667 L 602 -509.667 L 588 -509.667 L 576 -512.667 L 566 -518.667 L 556 -527.667 L 549 -538.667 L 544 -550.667 L 543 -555.667 L 543 -567.667 L 546 -578.667 L 554 -594.667 L 560 -601.667 L 570 -608.667 L 581 -613.667 L 588 -615.667 Z" fill="#161514" transform="matrix(0.9999999999999999, 0, 0, 0.9999999999999999, 0, -4.547473508864641e-13)"/>
  <path d="M 590 182.333 L 603 182.333 L 619 186.333 L 628 192.333 L 633 197.333 L 640 205.333 L 645 217.333 L 647 227.333 L 647 244.333 L 643 257.333 L 637 266.333 L 629 273.333 L 616 281.333 L 606 285.333 L 602 286.333 L 590 286.333 L 577 283.333 L 567 277.333 L 557 269.333 L 551 261.333 L 547 252.333 L 545 244.333 L 545 227.333 L 548 213.333 L 553 201.333 L 562 191.333 L 572 186.333 L 590 182.333 Z" fill="#161514" transform="matrix(0.9999999999999999, 0, 0, 0.9999999999999999, 0, -4.547473508864641e-13)"/>
  <path d="M 586 983.333 L 606 983.333 L 618 988.333 L 627 994.333 L 634 1001.333 L 642 1015.333 L 646 1028.333 L 646 1046.333 L 642 1055.333 L 634 1067.333 L 628 1074.333 L 618 1080.333 L 607 1085.333 L 596 1087.333 L 580 1086.333 L 570 1082.333 L 559 1073.333 L 550 1061.333 L 544 1048.333 L 543 1043.333 L 543 1029.333 L 546 1017.333 L 554 1002.333 L 564 992.333 L 578 985.333 L 586 983.333 Z" fill="#161514" transform="matrix(0.9999999999999999, 0, 0, 0.9999999999999999, 0, -4.547473508864641e-13)"/>
  <path d="M 1406 181.333 L 1423 181.333 L 1437 186.333 L 1447 193.333 L 1454 199.333 L 1461 210.333 L 1465 221.333 L 1466 227.333 L 1466 239.333 L 1462 252.333 L 1456 262.333 L 1449 270.333 L 1439 276.333 L 1429 280.333 L 1420 282.333 L 1408 282.333 L 1398 280.333 L 1389 276.333 L 1378 268.333 L 1370 258.333 L 1365 246.333 L 1364 242.333 L 1364 227.333 L 1368 212.333 L 1374 202.333 L 1383 192.333 L 1394 185.333 L 1406 181.333 Z" fill="#161514" transform="matrix(0.9999999999999999, 0, 0, 0.9999999999999999, 0, -4.547473508864641e-13)"/>
  <path d="M -233 181.333 L -216 181.333 L -205 185.333 L -194 192.333 L -185 201.333 L -178 212.333 L -175 221.333 L -174 226.333 L -174 236.333 L -177 248.333 L -182 258.333 L -189 267.333 L -196 273.333 L -206 279.333 L -215 282.333 L -220 283.333 L -230 283.333 L -242 280.333 L -254 274.333 L -264 265.333 L -271 254.333 L -275 242.333 L -276 229.333 L -273 215.333 L -267 203.333 L -261 196.333 L -250 188.333 L -239 183.333 L -233 181.333 Z" fill="#161514" transform="matrix(0.9999999999999999, 0, 0, 0.9999999999999999, 0, -4.547473508864641e-13)"/>
  <path d="M 651 270.333 L 661 270.333 L 678 275.333 L 703 287.333 L 725 300.333 L 761 324.333 L 777 335.333 L 796 349.333 L 811 362.333 L 821 372.333 L 822 379.333 L 819 382.333 L 811 382.333 L 798 377.333 L 774 363.333 L 751 351.333 L 726 337.333 L 708 324.333 L 699 317.333 L 685 307.333 L 675 299.333 L 664 289.333 L 659 284.333 L 653 276.333 L 651 270.333 Z" fill="#161514" transform="matrix(0.9999999999999999, 0, 0, 0.9999999999999999, 0, -4.547473508864641e-13)"/>
  <path d="M 397 210.333 L 465 210.333 L 489 214.333 L 517 222.333 L 525 226.333 L 527 229.333 L 527 232.333 L 506 237.333 L 496 239.333 L 472 241.333 L 445 241.333 L 416 238.333 L 377 233.333 L 343 229.333 L 335 225.333 L 332 221.333 L 331 215.333 L 335 213.333 L 346 212.333 L 397 210.333 Z" fill="#161514" transform="matrix(0.9999999999999999, 0, 0, 0.9999999999999999, 0, -4.547473508864641e-13)"/>
  <path d="M 744 209.333 L 780 209.333 L 825 212.333 L 851 214.333 L 854 217.333 L 854 225.333 L 848 228.333 L 822 232.333 L 786 236.333 L 764 239.333 L 737 241.333 L 720 241.333 L 694 240.333 L 674 237.333 L 667 234.333 L 664 230.333 L 664 225.333 L 669 222.333 L 701 214.333 L 718 211.333 L 744 209.333 Z" fill="#161514" transform="matrix(0.9999999999999999, 0, 0, 0.9999999999999999, 0, -4.547473508864641e-13)"/>
  <path d="M 664 246.333 L 689 248.333 L 725 253.333 L 755 260.333 L 791 272.333 L 840 291.333 L 852 298.333 L 854 300.333 L 853 304.333 L 850 305.333 L 830 304.333 L 807 301.333 L 751 291.333 L 725 284.333 L 698 273.333 L 681 266.333 L 666 260.333 L 661 256.333 L 662 247.333 L 664 246.333 Z" fill="#161514" transform="matrix(0.9999999999999999, 0, 0, 0.9999999999999999, 0, -4.547473508864641e-13)"/>
  <path d="M 507 248.333 L 526 248.333 L 530 251.333 L 529 255.333 L 520 261.333 L 506 269.333 L 481 279.333 L 457 286.333 L 409 297.333 L 383 302.333 L 366 304.333 L 343 304.333 L 337 301.333 L 337 297.333 L 348 290.333 L 420 266.333 L 442 260.333 L 482 252.333 L 507 248.333 Z" fill="#161514" transform="matrix(0.9999999999999999, 0, 0, 0.9999999999999999, 0, -4.547473508864641e-13)"/>
  <path d="M 809 737.333 L 822 738.333 L 831 742.333 L 839 748.333 L 845 758.333 L 847 765.333 L 847 778.333 L 843 789.333 L 834 801.333 L 826 805.333 L 823 806.333 L 802 806.333 L 792 801.333 L 784 792.333 L 779 782.333 L 778 777.333 L 778 768.333 L 781 758.333 L 787 749.333 L 795 742.333 L 804 738.333 L 809 737.333 Z" fill="#161514" transform="matrix(0.9999999999999999, 0, 0, 0.9999999999999999, 0, -4.547473508864641e-13)"/>
  <path d="M 45 421.333 L 55 422.333 L 67 428.333 L 75 437.333 L 79 447.333 L 79 463.333 L 74 475.333 L 66 484.333 L 54 490.333 L 49 491.333 L 40 491.333 L 30 489.333 L 21 483.333 L 14 472.333 L 11 460.333 L 12 448.333 L 17 436.333 L 24 428.333 L 33 423.333 L 45 421.333 Z" fill="#161514" transform="matrix(0.9999999999999999, 0, 0, 0.9999999999999999, 0, -4.547473508864641e-13)"/>
  <path d="M 372 738.333 L 382 738.333 L 395 742.333 L 404 750.333 L 409 760.333 L 410 765.333 L 410 779.333 L 405 791.333 L 396 801.333 L 388 805.333 L 381 807.333 L 368 807.333 L 358 803.333 L 350 796.333 L 344 786.333 L 342 778.333 L 342 764.333 L 346 754.333 L 352 747.333 L 364 740.333 L 372 738.333 Z" fill="#161514" transform="matrix(0.9999999999999999, 0, 0, 0.9999999999999999, 0, -4.547473508864641e-13)"/>
  <path d="M 1142 422.333 L 1153 422.333 L 1163 426.333 L 1169 430.333 L 1175 438.333 L 1179 448.333 L 1180 460.333 L 1178 469.333 L 1173 478.333 L 1169 483.333 L 1161 488.333 L 1156 490.333 L 1150 491.333 L 1139 491.333 L 1129 488.333 L 1121 481.333 L 1115 472.333 L 1113 467.333 L 1112 456.333 L 1115 442.333 L 1121 433.333 L 1128 427.333 L 1137 423.333 L 1142 422.333 Z" fill="#161514" transform="matrix(0.9999999999999999, 0, 0, 0.9999999999999999, 0, -4.547473508864641e-13)"/>
  <path d="M 805 -331.667 L 825 -331.667 L 836 -325.667 L 843 -317.667 L 846 -310.667 L 847 -305.667 L 847 -295.667 L 844 -283.667 L 836 -272.667 L 829 -267.667 L 817 -264.667 L 804 -265.667 L 795 -269.667 L 787 -275.667 L 781 -284.667 L 779 -292.667 L 779 -300.667 L 782 -312.667 L 789 -322.667 L 799 -329.667 L 805 -331.667 Z" fill="#161514" transform="matrix(0.9999999999999999, 0, 0, 0.9999999999999999, 0, -4.547473508864641e-13)"/>
  <path d="M 369 -331.667 L 384 -331.667 L 395 -327.667 L 403 -321.667 L 409 -311.667 L 411 -304.667 L 411 -291.667 L 408 -282.667 L 400 -272.667 L 393 -267.667 L 381 -264.667 L 368 -265.667 L 358 -269.667 L 350 -276.667 L 345 -284.667 L 343 -294.667 L 344 -307.667 L 348 -316.667 L 355 -324.667 L 363 -329.667 L 369 -331.667 Z" fill="#161514" transform="matrix(0.9999999999999999, 0, 0, 0.9999999999999999, 0, -4.547473508864641e-13)"/>
  <path d="M 1142 -28.667 L 1153 -28.667 L 1163 -25.667 L 1172 -19.667 L 1178 -10.667 L 1181 0.333 L 1181 8.333 L 1177 19.333 L 1171 29.333 L 1163 35.333 L 1156 38.333 L 1150 39.333 L 1141 39.333 L 1130 35.333 L 1120 26.333 L 1115 19.333 L 1113 13.333 L 1113 2.333 L 1117 -10.667 L 1121 -16.667 L 1129 -23.667 L 1137 -27.667 L 1142 -28.667 Z" fill="#161514" transform="matrix(0.9999999999999999, 0, 0, 0.9999999999999999, 0, -4.547473508864641e-13)"/>
  <path d="M 44 -30.667 L 52 -30.667 L 62 -27.667 L 70 -21.667 L 76 -12.667 L 79 -3.667 L 79 7.333 L 76 17.333 L 70 27.333 L 63 34.333 L 53 38.333 L 37 38.333 L 28 34.333 L 22 29.333 L 17 22.333 L 14 13.333 L 14 -3.667 L 17 -13.667 L 22 -20.667 L 33 -27.667 L 38 -29.667 L 44 -30.667 Z" fill="#161514" transform="matrix(0.9999999999999999, 0, 0, 0.9999999999999999, 0, -4.547473508864641e-13)"/>
  <path d="M 362.338 -441.58 L 376.35 -441.58 L 385.108 -436.518 L 389.486 -431.456 L 392.989 -425.381 L 392.989 -418.294 L 390.361 -409.183 L 385.108 -401.084 L 379.853 -397.034 L 377.225 -396.021 L 364.965 -396.021 L 357.959 -398.046 L 350.953 -403.108 L 347.45 -408.17 L 345.698 -412.22 L 345.698 -423.357 L 350.953 -433.481 L 357.959 -439.556 L 362.338 -441.58 Z" fill="#161514" style="" transform="matrix(0.9999999999999999, 0, 0, 0.9999999999999999, 0, -4.547473508864641e-13)"/>
  <path d="M 192 -355.667 L 202 -355.667 L 210 -351.667 L 217 -343.667 L 219 -338.667 L 219 -327.667 L 214 -315.667 L 208 -308.667 L 201 -305.667 L 188 -305.667 L 180 -309.667 L 173 -317.667 L 171 -322.667 L 171 -335.667 L 175 -344.667 L 179 -349.667 L 188 -354.667 L 192 -355.667 Z" fill="#161514" transform="matrix(0.9999999999999999, 0, 0, 0.9999999999999999, 0, -4.547473508864641e-13)"/>
  <path d="M 989 -353.667 L 998 -352.667 L 1012 -345.667 L 1018 -339.667 L 1020 -334.667 L 1020 -321.667 L 1014 -309.667 L 1008 -304.667 L 994 -304.667 L 985 -307.667 L 977 -314.667 L 971 -326.667 L 969 -333.667 L 970 -340.667 L 975 -346.667 L 983 -351.667 L 989 -353.667 Z" fill="#161514" transform="matrix(0.9999999999999999, 0, 0, 0.9999999999999999, 0, -4.547473508864641e-13)"/>
  <path d="M 378 872.333 L 396 872.333 L 404 877.333 L 408 882.333 L 411 889.333 L 411 901.333 L 407 907.333 L 399 914.333 L 393 916.333 L 377 916.333 L 368 912.333 L 361 904.333 L 359 899.333 L 359 888.333 L 363 881.333 L 369 876.333 L 378 872.333 Z" fill="#161514" transform="matrix(0.9999999999999999, 0, 0, 0.9999999999999999, 0, -4.547473508864641e-13)"/>
  <path d="M 16 -186.667 L 31 -186.667 L 38 -182.667 L 44 -175.667 L 46 -167.667 L 46 -160.667 L 43 -151.667 L 34 -141.667 L 27 -138.667 L 17 -138.667 L 10 -142.667 L 3 -149.667 L 0 -156.667 L 0 -169.667 L 5 -179.667 L 13 -185.667 L 16 -186.667 Z" fill="#161514" transform="matrix(0.9999999999999999, 0, 0, 0.9999999999999999, 0, -4.547473508864641e-13)"/>
  <path d="M 18 621.333 L 32 621.333 L 40 625.333 L 46 632.333 L 48 637.333 L 49 647.333 L 45 658.333 L 38 666.333 L 32 669.333 L 22 668.333 L 12 663.333 L 4 654.333 L 2 649.333 L 2 638.333 L 7 628.333 L 13 623.333 L 18 621.333 Z" fill="#161514" transform="matrix(0.9999999999999999, 0, 0, 0.9999999999999999, 0, -4.547473508864641e-13)"/>
  <path d="M 1160 618.333 L 1171 618.333 L 1178 621.333 L 1183 626.333 L 1187 632.333 L 1189 639.333 L 1188 649.333 L 1184 656.333 L 1180 661.333 L 1174 665.333 L 1164 666.333 L 1154 663.333 L 1147 657.333 L 1143 648.333 L 1143 635.333 L 1146 627.333 L 1154 620.333 L 1160 618.333 Z" fill="#161514" transform="matrix(0.9999999999999999, 0, 0, 0.9999999999999999, 0, -4.547473508864641e-13)"/>
  <path d="M -85 23.333 L -78 23.333 L -70 26.333 L -63 34.333 L -60 41.333 L -60 52.333 L -65 62.333 L -73 71.333 L -80 74.333 L -89 72.333 L -97 65.333 L -102 58.333 L -104 53.333 L -104 39.333 L -100 32.333 L -92 25.333 L -85 23.333 Z" fill="#161514" transform="matrix(0.9999999999999999, 0, 0, 0.9999999999999999, 0, -4.547473508864641e-13)"/>
  <path d="M 722 -463.667 L 729 -463.667 L 738 -460.667 L 745 -453.667 L 749 -445.667 L 749 -433.667 L 744 -423.667 L 735 -415.667 L 733 -414.667 L 725 -414.667 L 716 -418.667 L 711 -423.667 L 707 -428.667 L 704 -435.667 L 704 -446.667 L 708 -454.667 L 716 -461.667 L 722 -463.667 Z" fill="#161514" transform="matrix(0.9999999999999999, 0, 0, 0.9999999999999999, 0, -4.547473508864641e-13)"/>
  <path d="M 890 -408.667 L 898 -408.667 L 906 -404.667 L 912 -397.667 L 915 -390.667 L 916 -385.667 L 916 -375.667 L 911 -365.667 L 903 -360.667 L 891 -360.667 L 881 -366.667 L 875 -373.667 L 870 -386.667 L 870 -393.667 L 877 -402.667 L 883 -406.667 L 890 -408.667 Z" fill="#161514" transform="matrix(0.9999999999999999, 0, 0, 0.9999999999999999, 0, -4.547473508864641e-13)"/>
  <path d="M -83 407.333 L -76 407.333 L -66 411.333 L -59 419.333 L -56 427.333 L -56 436.333 L -60 446.333 L -67 454.333 L -73 457.333 L -81 456.333 L -89 452.333 L -95 447.333 L -100 439.333 L -101 430.333 L -98 420.333 L -93 413.333 L -86 408.333 L -83 407.333 Z" fill="#161514" transform="matrix(0.9999999999999999, 0, 0, 0.9999999999999999, 0, -4.547473508864641e-13)"/>
  <path d="M 989 776.333 L 998 776.333 L 1004 780.333 L 1009 787.333 L 1010 790.333 L 1010 802.333 L 1006 810.333 L 1001 816.333 L 992 821.333 L 983 822.333 L 973 819.333 L 964 813.333 L 962 807.333 L 963 798.333 L 968 788.333 L 976 781.333 L 984 777.333 L 989 776.333 Z" fill="#161514" transform="matrix(0.9999999999999999, 0, 0, 0.9999999999999999, 0, -4.547473508864641e-13)"/>
  <path d="M 1209 -120.667 L 1220 -119.667 L 1227 -115.667 L 1233 -108.667 L 1236 -101.667 L 1236 -90.667 L 1232 -81.667 L 1228 -76.667 L 1219 -72.667 L 1209 -73.667 L 1199 -79.667 L 1192 -87.667 L 1191 -90.667 L 1191 -98.667 L 1195 -109.667 L 1202 -117.667 L 1209 -120.667 Z" fill="#161514" transform="matrix(0.9999999999999999, 0, 0, 0.9999999999999999, 0, -4.547473508864641e-13)"/>
  <path d="M 1163 -187.667 L 1175 -187.667 L 1183 -182.667 L 1189 -175.667 L 1191 -170.667 L 1191 -158.667 L 1188 -150.667 L 1181 -143.667 L 1177 -141.667 L 1165 -141.667 L 1155 -146.667 L 1148 -154.667 L 1146 -160.667 L 1146 -169.667 L 1149 -176.667 L 1154 -182.667 L 1163 -187.667 Z" fill="#161514" transform="matrix(0.9999999999999999, 0, 0, 0.9999999999999999, 0, -4.547473508864641e-13)"/>
  <path d="M 888 833.333 L 903 833.333 L 909 837.333 L 913 842.333 L 914 845.333 L 914 857.333 L 909 867.333 L 900 877.333 L 896 879.333 L 888 879.333 L 878 874.333 L 870 867.333 L 869 865.333 L 869 852.333 L 873 843.333 L 881 836.333 L 888 833.333 Z" fill="#161514" transform="matrix(0.9999999999999999, 0, 0, 0.9999999999999999, 0, -4.547473508864641e-13)"/>
  <path d="M 466.237 -466.14 L 476.237 -465.14 L 484.237 -461.14 L 490.237 -454.14 L 492.237 -450.14 L 492.237 -437.14 L 486.237 -425.14 L 480.237 -420.14 L 471.237 -419.14 L 461.237 -423.14 L 452.237 -430.14 L 447.237 -438.14 L 447.237 -449.14 L 452.237 -457.14 L 457.237 -462.14 L 462.237 -465.14 L 466.237 -466.14 Z" fill="#161514" transform="matrix(0.9999999999999999, 0, 0, 0.9999999999999999, 0, -4.547473508864641e-13)"/>
  <path d="M 1285 98.333 L 1296 98.333 L 1304 102.333 L 1310 109.333 L 1313 115.333 L 1313 126.333 L 1308 136.333 L 1304 141.333 L 1297 145.333 L 1288 145.333 L 1280 141.333 L 1275 137.333 L 1270 128.333 L 1269 124.333 L 1269 115.333 L 1272 107.333 L 1280 100.333 L 1285 98.333 Z" fill="#161514" transform="matrix(0.9999999999999999, 0, 0, 0.9999999999999999, 0, -4.547473508864641e-13)"/>
  <path d="M 1206 552.333 L 1217 553.333 L 1223 557.333 L 1228 563.333 L 1231 570.333 L 1232 578.333 L 1229 586.333 L 1223 593.333 L 1217 597.333 L 1214 598.333 L 1203 598.333 L 1197 595.333 L 1191 590.333 L 1187 584.333 L 1186 580.333 L 1186 573.333 L 1190 563.333 L 1196 556.333 L 1201 553.333 L 1206 552.333 Z" fill="#161514" transform="matrix(0.9999999999999999, 0, 0, 0.9999999999999999, 0, -4.547473508864641e-13)"/>
  <path d="M 807 -437.667 L 819 -437.667 L 827 -433.667 L 833 -426.667 L 836 -417.667 L 835 -408.667 L 831 -400.667 L 823 -393.667 L 813 -391.667 L 804 -394.667 L 796 -401.667 L 791 -409.667 L 791 -421.667 L 795 -429.667 L 802 -435.667 L 807 -437.667 Z" fill="#161514" transform="matrix(0.9999999999999999, 0, 0, 0.9999999999999999, 0, -4.547473508864641e-13)"/>
  <path d="M 263 818.333 L 271 819.333 L 277 822.333 L 284 830.333 L 286 835.333 L 287 844.333 L 284 851.333 L 277 857.333 L 267 862.333 L 263 863.333 L 255 863.333 L 248 859.333 L 242 850.333 L 240 842.333 L 241 832.333 L 246 826.333 L 253 821.333 L 263 818.333 Z" fill="#161514" transform="matrix(0.9999999999999999, 0, 0, 0.9999999999999999, 0, -4.547473508864641e-13)"/>
  <path d="M -24 -120.667 L -14 -120.667 L -6 -116.667 L -1 -108.667 L 0 -105.667 L 0 -90.667 L -3 -83.667 L -8 -77.667 L -13 -74.667 L -24 -74.667 L -32 -77.667 L -40 -84.667 L -42 -88.667 L -42 -101.667 L -37 -111.667 L -32 -117.667 L -24 -120.667 Z" fill="#161514" transform="matrix(0.9999999999999999, 0, 0, 0.9999999999999999, 0, -4.547473508864641e-13)"/>
  <path d="M 724 893.333 L 733 894.333 L 740 898.333 L 746 906.333 L 747 910.333 L 747 921.333 L 742 931.333 L 734 938.333 L 732 939.333 L 721 939.333 L 712 933.333 L 706 925.333 L 703 916.333 L 705 906.333 L 712 898.333 L 719 894.333 L 724 893.333 Z" fill="#161514" transform="matrix(0.9999999999999999, 0, 0, 0.9999999999999999, 0, -4.547473508864641e-13)"/>
  <path d="M -22 554.333 L -11 554.333 L -2 558.333 L 4 565.333 L 6 570.333 L 6 580.333 L 1 590.333 L -6 596.333 L -10 598.333 L -23 598.333 L -32 593.333 L -37 587.333 L -38 584.333 L -38 575.333 L -34 564.333 L -28 557.333 L -22 554.333 Z" fill="#161514" transform="matrix(0.9999999999999999, 0, 0, 0.9999999999999999, 0, -4.547473508864641e-13)"/>
  <path d="M -58 484.333 L -47 484.333 L -40 488.333 L -33 496.333 L -30 503.333 L -30 511.333 L -33 518.333 L -38 524.333 L -44 528.333 L -54 529.333 L -64 525.333 L -73 516.333 L -76 508.333 L -74 500.333 L -69 492.333 L -61 485.333 L -58 484.333 Z" fill="#161514" transform="matrix(0.9999999999999999, 0, 0, 0.9999999999999999, 0, -4.547473508864641e-13)"/>
  <path d="M -101 327.333 L -89 327.333 L -81 331.333 L -74 340.333 L -73 348.333 L -76 358.333 L -82 367.333 L -88 371.333 L -98 371.333 L -107 367.333 L -115 360.333 L -118 354.333 L -118 343.333 L -115 337.333 L -108 330.333 L -101 327.333 Z" fill="#161514" transform="matrix(0.9999999999999999, 0, 0, 0.9999999999999999, 0, -4.547473508864641e-13)"/>
  <path d="M -61 -46.667 L -50 -46.667 L -42 -41.667 L -36 -31.667 L -35 -29.667 L -35 -18.667 L -40 -10.667 L -46 -5.667 L -52 -2.667 L -61 -2.667 L -68 -5.667 L -76 -12.667 L -79 -17.667 L -80 -26.667 L -77 -35.667 L -70 -42.667 L -65 -45.667 L -61 -46.667 Z" fill="#161514" transform="matrix(0.9999999999999999, 0, 0, 0.9999999999999999, 0, -4.547473508864641e-13)"/>
  <path d="M 1264 407.333 L 1278 407.333 L 1287 413.333 L 1291 420.333 L 1291 434.333 L 1287 442.333 L 1280 449.333 L 1275 451.333 L 1265 450.333 L 1256 444.333 L 1248 435.333 L 1246 431.333 L 1246 425.333 L 1251 416.333 L 1258 410.333 L 1264 407.333 Z" fill="#161514" transform="matrix(0.9999999999999999, 0, 0, 0.9999999999999999, 0, -4.547473508864641e-13)"/>
  <path d="M -100 98.333 L -93 98.333 L -85 101.333 L -78 109.333 L -74 117.333 L -74 127.333 L -81 136.333 L -87 141.333 L -93 143.333 L -101 142.333 L -108 138.333 L -116 129.333 L -119 122.333 L -119 115.333 L -115 107.333 L -108 101.333 L -100 98.333 Z" fill="#161514" transform="matrix(0.9999999999999999, 0, 0, 0.9999999999999999, 0, -4.547473508864641e-13)"/>
  <path d="M 183 772.333 L 194 772.333 L 202 776.333 L 208 783.333 L 211 790.333 L 211 799.333 L 206 809.333 L 198 816.333 L 193 818.333 L 186 818.333 L 179 814.333 L 172 805.333 L 169 795.333 L 169 788.333 L 172 781.333 L 177 775.333 L 183 772.333 Z" fill="#161514" transform="matrix(0.9999999999999999, 0, 0, 0.9999999999999999, 0, -4.547473508864641e-13)"/>
  <path d="M 802 871.333 L 813 871.333 L 823 876.333 L 829 883.333 L 831 888.333 L 831 897.333 L 827 905.333 L 818 913.333 L 813 915.333 L 803 915.333 L 797 911.333 L 790 903.333 L 788 897.333 L 788 888.333 L 791 880.333 L 796 874.333 L 802 871.333 Z" fill="#161514" transform="matrix(0.9999999999999999, 0, 0, 0.9999999999999999, 0, -4.547473508864641e-13)"/>
  <path d="M 462 895.333 L 473 895.333 L 481 899.333 L 487 906.333 L 489 911.333 L 489 920.333 L 483 932.333 L 476 938.333 L 473 939.333 L 462 939.333 L 455 935.333 L 449 927.333 L 447 923.333 L 447 909.333 L 452 901.333 L 459 896.333 L 462 895.333 Z" fill="#161514" transform="matrix(0.9999999999999999, 0, 0, 0.9999999999999999, 0, -4.547473508864641e-13)"/>
  <path d="M 1282 326.333 L 1293 326.333 L 1301 329.333 L 1309 338.333 L 1311 344.333 L 1310 352.333 L 1304 360.333 L 1297 366.333 L 1292 368.333 L 1280 368.333 L 1272 363.333 L 1267 355.333 L 1266 351.333 L 1266 342.333 L 1270 334.333 L 1279 327.333 L 1282 326.333 Z" fill="#161514" transform="matrix(0.9999999999999999, 0, 0, 0.9999999999999999, 0, -4.547473508864641e-13)"/>
  <path d="M 1244 481.333 L 1253 482.333 L 1259 486.333 L 1265 495.333 L 1266 498.333 L 1266 508.333 L 1261 518.333 L 1253 525.333 L 1245 526.333 L 1235 522.333 L 1227 515.333 L 1223 509.333 L 1223 499.333 L 1227 491.333 L 1234 485.333 L 1244 481.333 Z" fill="#161514" transform="matrix(0.9999999999999999, 0, 0, 0.9999999999999999, 0, -4.547473508864641e-13)"/>
  <path d="M 1243 -47.667 L 1254 -47.667 L 1262 -43.667 L 1268 -36.667 L 1270 -30.667 L 1270 -23.667 L 1266 -12.667 L 1259 -4.667 L 1254 -2.667 L 1245 -3.667 L 1236 -8.667 L 1229 -16.667 L 1228 -18.667 L 1228 -28.667 L 1232 -38.667 L 1238 -45.667 L 1243 -47.667 Z" fill="#161514" transform="matrix(0.9999999999999999, 0, 0, 0.9999999999999999, 0, -4.547473508864641e-13)"/>
  <path d="M 1271 22.333 L 1280 22.333 L 1288 26.333 L 1293 34.333 L 1294 37.333 L 1294 49.333 L 1290 60.333 L 1285 67.333 L 1281 69.333 L 1273 69.333 L 1267 66.333 L 1260 59.333 L 1257 52.333 L 1257 41.333 L 1261 30.333 L 1265 25.333 L 1271 22.333 Z" fill="#161514" transform="matrix(0.9999999999999999, 0, 0, 0.9999999999999999, 0, -4.547473508864641e-13)"/>
  <path d="M 301 847.333 L 308 847.333 L 318 851.333 L 323 857.333 L 324 859.333 L 324 865.333 L 318 873.333 L 310 878.333 L 303 877.333 L 297 872.333 L 292 862.333 L 294 853.333 L 301 847.333 Z" fill="#161514" transform="matrix(0.9999999999999999, 0, 0, 0.9999999999999999, 0, -4.547473508864641e-13)"/>
  <path d="M 277.9 -357.641 L 292.771 -357.641 L 302.066 -363.169 L 306.714 -368.697 L 310.432 -375.331 L 310.432 -383.07 L 307.643 -393.02 L 302.066 -401.865 L 296.49 -406.287 L 293.701 -407.393 L 280.689 -407.393 L 273.253 -405.182 L 265.817 -399.654 L 262.099 -394.126 L 260.24 -389.703 L 260.24 -377.542 L 265.817 -366.486 L 273.253 -359.852 L 277.9 -357.641 Z" fill="#161514" style="" transform="matrix(0.9999999999999999, 0, 0, 0.9999999999999999, 0, -4.547473508864641e-13)"/>
</svg>